<svg width="20" height="20" viewBox="0 0 20 20" fill="none" xmlns="http://www.w3.org/2000/svg">
<path id="Arrow 9" d="M0.93934 16.496C0.353553 17.0818 0.353553 18.0315 0.93934 18.6173C1.52513 19.2031 2.47487 19.2031 3.06066 18.6173L0.93934 16.496ZM19.0563 2.00029C19.0563 1.17186 18.3848 0.500292 17.5563 0.500292L4.05635 0.500291C3.22792 0.500291 2.55635 1.17186 2.55635 2.00029C2.55635 2.82872 3.22792 3.50029 4.05635 3.50029H16.0563V15.5003C16.0563 16.3287 16.7279 17.0003 17.5563 17.0003C18.3848 17.0003 19.0563 16.3287 19.0563 15.5003L19.0563 2.00029ZM3.06066 18.6173L18.617 3.06095L16.4957 0.939632L0.93934 16.496L3.06066 18.6173Z" fill="white"/>
</svg>
