<svg width="214" height="177" viewBox="0 0 214 177" fill="none" xmlns="http://www.w3.org/2000/svg">
<g id="swap" clip-path="url(#clip0_1233_352)">
<path id="Vector" d="M102.272 8.73676L197.801 174.79C198.366 175.772 197.659 177 196.53 177H5.47045C4.34017 177 3.63374 175.772 4.19893 174.79L99.7287 8.73676C100.293 7.75441 101.706 7.75441 102.272 8.73676Z" stroke="white"/>
<path id="Vector_2" d="M113.778 4.73676L209.8 170.79C210.368 171.772 209.658 173 208.522 173H16.478C15.3419 173 14.6319 171.772 15.2 170.79L111.222 4.73676C111.79 3.75441 113.21 3.75441 113.778 4.73676Z" stroke="white"/>
<path id="Vector_3" d="M101 163C124.748 163 144 143.524 144 119.5C144 95.4756 124.748 76 101 76C77.2518 76 58 95.4756 58 119.5C58 143.524 77.2518 163 101 163Z" stroke="white"/>
<path id="Vector_4" d="M113 157C136.748 157 156 137.748 156 114C156 90.2518 136.748 71 113 71C89.2518 71 70 90.2518 70 114C70 137.748 89.2518 157 113 157Z" stroke="white"/>
</g>
<defs>
<clipPath id="clip0_1233_352">
<rect width="214" height="177" fill="white"/>
</clipPath>
</defs>
</svg>
